<?xml version="1.0" encoding="utf-8"?>
<svg width="800px" height="800px" viewBox="0 0 24 24" fill="none" xmlns="http://www.w3.org/2000/svg">
  <path d="M9 18L3 18L3 9L3 8C3 5.5 4.5 3 8.5 3C12.5 3 14 5.5 14 8L14 9" stroke="#000000" stroke-width="2" stroke-linecap="round" stroke-linejoin="round"/>
  <path d="M9 21C12.5 21 12.5 21 12.5 18.5V14C12.5 12 12 11 14 11C16 11 21 11 21 16C21 21 17.5 21 16 21H9Z" stroke="#000000" stroke-width="2" stroke-linecap="round" stroke-linejoin="round"/>
  <path d="M13.5 14L19 14" stroke="#000000" stroke-width="2" stroke-linecap="round" stroke-linejoin="round"/>
  <path d="M16 14L16 21" stroke="#000000" stroke-width="2" stroke-linecap="round" stroke-linejoin="round"/>
</svg>
