<?xml version="1.0" encoding="utf-8"?>
<svg width="800px" height="800px" viewBox="0 0 24 24" fill="none" xmlns="http://www.w3.org/2000/svg">
  <path d="M12 5C13.1046 5 14 5.89543 14 7V7H10V7C10 5.89543 10.8954 5 12 5Z" stroke="#000000" stroke-width="2" stroke-linecap="round" stroke-linejoin="round"/>
  <path d="M5 12L5.28465 16.5084C5.35911 17.3319 5.39634 17.7437 5.65274 18.0523C5.9934 18.4567 6.50131 18.6981 7.04921 18.7045C7.38163 18.7083 7.74951 18.5321 8.48525 18.1799C8.82509 18.0034 8.99501 17.9152 9.17484 17.8753C9.39614 17.8274 9.62362 17.8274 9.84492 17.8753C10.0248 17.9152 10.1947 18.0034 10.5345 18.1799C10.8744 18.3564 11.0443 18.4446 11.2241 18.4845C11.4454 18.5324 11.6729 18.5324 11.8942 18.4845C12.074 18.4446 12.2439 18.3564 12.5838 18.1799C12.9236 18.0034 13.0935 17.9152 13.2734 17.8753C13.4947 17.8274 13.7221 17.8274 13.9434 17.8753C14.1233 17.9152 14.2932 18.0034 14.633 18.1799C15.3688 18.5321 15.7366 18.7083 16.0691 18.7045C16.617 18.6981 17.1249 18.4567 17.4655 18.0523C17.7219 17.7437 17.7592 17.3319 17.8336 16.5084L18.1183 12" stroke="#000000" stroke-width="2" stroke-linecap="round" stroke-linejoin="round"/>
  <path d="M19.5 8H4.5C4.5 11.5 5.5 12 6.5 12H17.5C18.5 12 19.5 11.5 19.5 8Z" stroke="#000000" stroke-width="2" stroke-linecap="round" stroke-linejoin="round"/>
</svg>
